<svg width="28" height="16" viewBox="0 0 28 16" fill="none" xmlns="http://www.w3.org/2000/svg">
<path d="M21.875 8.75H6.125C5.635 8.75 5.25 8.365 5.25 7.875C5.25 7.385 5.635 7 6.125 7H21.875C22.365 7 22.75 7.385 22.75 7.875C22.75 8.365 22.365 8.75 21.875 8.75Z" fill="white"/>
<path d="M10.5 14.875C10.3852 14.8764 10.2715 14.8538 10.166 14.8086C10.0605 14.7633 9.96563 14.6966 9.8875 14.6125L3.7625 8.4875C3.4125 8.1375 3.4125 7.595 3.7625 7.245L9.8875 1.1375C10.2375 0.7875 10.78 0.7875 11.13 1.1375C11.48 1.4875 11.48 2.03 11.13 2.38L5.6175 7.8925L11.13 13.405C11.48 13.755 11.48 14.2975 11.13 14.6475C10.955 14.8225 10.7275 14.91 10.5175 14.91L10.5 14.875Z" fill="white"/>
</svg>
